<?xml version="1.0" encoding="utf-8"?>
<!-- Generator: Adobe Illustrator 26.0.1, SVG Export Plug-In . SVG Version: 6.00 Build 0)  -->
<svg version="1.1" id="Layer_1" xmlns="http://www.w3.org/2000/svg" xmlns:xlink="http://www.w3.org/1999/xlink" x="0px" y="0px"
	 viewBox="0 0 220 40" style="enable-background:new 0 0 220 40;" xml:space="preserve">
<style type="text/css">
	.st0{fill:#596B6E;}
	.st1{fill:#00689E;}
	.st2{fill:#EEB927;}
</style>
<g>
	<g>
		<g>
			<path class="st0" d="M158.3,18.59c6.28,0,9.76,4.11,9.76,8.87c0,5.1-3.99,10.17-10.55,10.17c-6.14,0-9.7-4.41-9.7-9.26
				C147.81,23.47,151.43,18.59,158.3,18.59z M158.13,36.42c4.19,0,6.5-4.19,6.5-8.24c0-4.11-2.4-8.38-6.9-8.38
				c-4.21,0-6.53,3.83-6.53,7.83C151.2,31.73,153.69,36.42,158.13,36.42z"/>
			<path class="st0" d="M169.3,36.45c1.19-0.14,1.95-0.77,1.95-1.71V21.67c0-1.32-0.14-1.6-2.23-2.01v-0.74h7.18
				c5.03,0,6.96,2.09,6.96,4.44c0,2.45-2.21,4.13-3.62,4.91v0.41l4.07,5.9c1.19,1.65,1.73,1.71,2.38,1.76l0.31,0.03l-0.11,0.94h-4.7
				l-0.11-0.08c0,0-0.48-1.3-1.7-3.03l-3.37-4.91h-1.7l-0.31,0.3v5.15c0,0.8-0.14,1.41-0.14,1.41l2.55,0.25l-0.11,0.83l-7.3,0.17
				V36.45z M176.57,28.07c1.5,0,3.22-1.32,3.22-3.94c0-2.15-1.16-3.97-4.27-3.97h-0.91l-0.31,0.3v7.61H176.57z"/>
			<path class="st0" d="M187.38,36.45c1.19-0.14,1.95-0.77,1.95-1.71V21.67c0-1.32,0-1.6-2.01-2.01v-0.74h2.12
				c3,0,3.73-0.11,3.73-0.11l0.14,0.11c0,0-0.93,1.05-0.93,3.33v4.85h0.54c0,0,0.65-0.39,1.13-0.88l5.26-5.18
				c0.51-0.52,0.57-1.18-0.85-1.38v-0.74h5.46l0.14,0.44c0,0-1.5,0.3-3.25,2.04l-5.23,5.18v0.36l6.62,7.83
				c1.22,1.41,1.44,1.49,2.26,1.57l0.31,0.03l-0.11,0.94h-4.7l-0.11-0.08c0,0-0.23-0.85-1.98-2.92l-4.98-5.87h-0.51v6.31
				c0,0.8-0.14,1.41-0.14,1.41l2.49,0.25l-0.11,0.83l-7.24,0.17V36.45z"/>
			<path class="st0" d="M206.19,32.09h1.02c0,3.47,2.23,4.35,4.1,4.35c1.7,0,3.37-0.77,3.37-2.7c0-4.57-8.8-4.46-8.8-10.17
				c0-2.84,2.15-4.99,6.45-4.99c1.87,0,3.82,0.39,4.84,0.52l-0.91,4.41h-1.02c0.17-2.07-0.79-3.75-3.2-3.75
				c-1.89,0-3.34,0.91-3.34,2.67c0,4.6,8.8,4.13,8.8,10.14c0,3.42-2.91,5.04-6.42,5.04c-2.49,0-5.6-0.8-5.63-2.84
				C205.45,34.43,205.54,33.97,206.19,32.09z"/>
		</g>
	</g>
	<g>
		<g>
			<path class="st1" d="M12.96,18.59c2.26,0,4.86,0.55,6.36,0.69l-0.85,4.24h-1.02c-0.06-2.81-2.46-3.75-4.89-3.75
				c-4.44,0-6.9,3.47-6.9,7.63c0,5.04,3.62,8.13,8.06,8.13c3.39,0,5.57-1.93,5.57-1.93l0.42,0.63c0,0-2.21,3.39-7.3,3.39
				c-5.57,0-9.93-3.86-9.93-9.29C2.5,23.13,6.46,18.59,12.96,18.59z"/>
			<path class="st1" d="M20.23,36.45c1.16-0.11,1.67-0.69,1.9-1.27l6.65-16.15l1.41-0.3l6.25,15.68c0.62,1.6,1.1,1.96,2.06,2.09
				l-0.11,0.8H37.2c-1.16,0-4.84,0.08-4.84,0.08v-0.99c0.79-0.03,1.47-0.25,1.16-1.07l-1.56-4.05h-6.42l-0.4,0.28l-1.81,4.6l2.4,0.3
				l-0.14,0.85h-5.37V36.45z M28.72,22.42l-2.97,7.55h5.74l-2.15-5.68C29.14,23.71,28.86,22.91,28.72,22.42z"/>
			<path class="st1" d="M39.95,36.45c1.24-0.14,1.98-0.72,2.04-1.71l0.57-13.06c0.06-1.32-0.14-1.57-2.23-2.01v-0.74h2.18
				c2.52,0,3.73-0.11,3.73-0.11l0.11,0.11c0,0,0.31,1.24,0.82,2.54l3.93,9.89c0.2,0.47,0.4,1.1,0.54,1.6l5.06-12.1
				c0.23-0.58,0.62-1.93,0.62-1.93h1.02c2.38,0,3.34-0.11,3.34-0.11l0.14,0.11c0,0-0.99,1.13-0.91,3.47l0.54,12.43
				c0.03,0.85-0.09,1.41-0.09,1.41l2.43,0.17l-0.11,0.83l-7.21,0.17v-0.94c1.22-0.14,2.01-0.69,1.98-1.63l-0.57-13.28L51.26,37.3
				l-0.99-0.33l-6.28-15.43c0,0-0.06,0.58-0.09,1.1l-0.48,12.1c-0.03,0.77-0.2,1.49-0.2,1.49l2.6,0.17l-0.11,0.83l-5.77,0.17V36.45z
				"/>
			<path class="st1" d="M65.77,36.45c1.19-0.14,1.95-0.77,1.95-1.71V21.67c0-1.32-0.14-1.6-2.23-2.01v-0.74h7.41
				c3.31,0,7.04,1.07,7.04,4.99c0,4.16-4.04,6.06-7.35,5.73v-0.88c2.83-0.14,3.96-1.93,3.96-4.11c0-3.11-2.29-4.49-4.92-4.49h-0.54
				l-0.31,0.3v14.28c0,0.8-0.14,1.41-0.14,1.41l2.69,0.25l-0.11,0.83l-7.44,0.17V36.45z"/>
			<path class="st1" d="M83.14,21.67c0-1.32,0-1.6-2.01-2.01v-0.74h2.12c3,0,3.73-0.11,3.73-0.11l0.14,0.11c0,0-0.93,1.07-0.93,3.39
				v8.29c0,3.91,2.74,5.62,5.46,5.62c2.74,0,5.52-1.82,5.52-5.43v-8.98c0-1.21-0.03-1.85-2.21-2.07v-0.83h5.63l0.14,0.44
				c0,0-2.01,0.58-2.01,2.87v8.49c0,4.55-3.51,6.92-7.81,6.92c-3.79,0-7.78-1.76-7.78-6.81V21.67z"/>
			<path class="st1" d="M102.68,32.09h1.02c0,3.47,2.23,4.35,4.1,4.35c1.7,0,3.37-0.77,3.37-2.7c0-4.57-8.8-4.46-8.8-10.17
				c0-2.84,2.15-4.99,6.45-4.99c1.87,0,3.82,0.39,4.84,0.52l-0.91,4.41h-1.02c0.17-2.07-0.79-3.75-3.2-3.75
				c-1.89,0-3.34,0.91-3.34,2.67c0,4.6,8.8,4.13,8.8,10.14c0,3.42-2.91,5.04-6.42,5.04c-2.49,0-5.6-0.8-5.63-2.84
				C101.95,34.43,102.03,33.97,102.68,32.09z"/>
		</g>
	</g>
	<path class="st1" d="M138.51,15.42c1.11,2.17-1.44,5.3-4.65,8.86c-4.64,5.14,0.54,9.18,0.54,9.18s-0.66-1.64,3.99-6.78
		C141.61,23.12,140.53,17.61,138.51,15.42z"/>
	<path class="st2" d="M135.85,18.43c3.95-6.18,0.69-13.45-2.08-16.06c2.33,4.09,0.06,6.9-4.87,12.36c-7.14,7.89,0.83,14.1,0.83,14.1
		C129.77,23.75,133.98,21.35,135.85,18.43z"/>
	<path class="st0" d="M149.85,14.21h-5.99v0.93c2.02,0.52,2.33,1.42,1.79,3.01l-4.92,14.09c-0.19-0.66-0.46-1.49-0.69-2.11
		l-0.74-1.89c-1.35,1.45-2.18,2.55-2.68,3.36l2.35,5.59l1.83,0.42l6.67-19.21c1.11-2.98,2.52-3.63,2.52-3.63L149.85,14.21z"/>
	<path class="st0" d="M127.64,28.94l-1.16,3.33c-0.15-0.66-0.42-1.56-0.69-2.22l-5.22-12.67c-0.42-1-0.23-2.35,0.23-3.18l-0.15-0.14
		c0,0-2.29,0.14-4.61,0.14h-2.25v0.93c0,0,1.56,0.42,2.21,1.9l8.77,20.14l1.79,0.42l2.58-7.4l-0.32-0.23
		C128.75,29.93,128.27,29.57,127.64,28.94z"/>
</g>
</svg>
